<svg width="80" height="80" viewBox="0 0 80 80" fill="none" xmlns="http://www.w3.org/2000/svg">
<path d="M43.7517 7.84912C44.7126 7.74617 45.8261 7.9467 46.7517 8.20947C48.8458 8.80391 50.5466 10.077 51.5564 11.894C52.6058 13.7568 52.8072 15.9346 52.115 17.937C51.2361 20.4063 49.3518 21.6473 46.9978 22.7886L47.0242 29.9907C48.7065 30.4687 50.3433 31.0105 51.8708 31.8354C55.3816 33.7316 57.783 36.9288 58.7898 40.5669C59.854 44.382 59.2489 48.436 57.1072 51.8364C55.1428 54.9186 52.0103 57.1949 48.2605 58.0669C43.3621 59.2073 39.208 57.9724 34.9978 55.6401C33.1368 57.4942 31.2979 59.3693 29.4832 61.2642C30.2945 63.0474 30.5632 64.9181 30.0251 66.813C29.4993 68.6655 28.1061 70.2525 26.324 71.1909C24.3271 72.2439 22.0523 72.4359 19.863 71.8521C17.6904 71.2727 15.8643 70.0186 14.8025 68.1343C13.7575 66.2818 13.6689 64.111 14.3464 62.1333C15.1173 59.8854 16.6877 58.5005 18.8953 57.4731C21.2712 56.6072 23.2352 56.892 25.5544 57.6704C27.4855 55.7771 29.3037 53.7884 31.2546 51.9116C29.1105 47.9938 28.4162 44.6565 29.531 40.3394C27.1036 39.2835 24.7627 38.0543 22.3337 36.9966C21.0359 38.2554 19.4497 39.1186 17.5867 39.4106C15.3649 39.7591 13.0223 39.1944 11.196 37.979C9.3867 36.7577 8.19637 34.8964 7.90405 32.8325C7.60402 30.8311 8.16903 28.625 9.54468 27.0454C10.9632 25.4164 13.1655 24.4342 15.3884 24.2173C17.5725 24.0191 19.7514 24.6398 21.4431 25.9419C23.6062 27.63 24.2306 29.7281 24.4929 32.229C26.7952 33.5442 29.4319 34.5586 31.8308 35.7329C34.9519 32.2951 37.2319 31.2104 41.781 29.9038L41.7849 22.7563C40.9705 22.4527 40.1576 22.0832 39.448 21.5972C37.6532 20.3601 36.4753 18.4965 36.1843 16.4341C35.9152 14.3822 36.5362 12.3144 37.9109 10.6919C39.4133 8.93583 41.4221 8.13637 43.7517 7.84912ZM53.78 43.4048C53.3171 38.4878 48.6816 34.8418 43.4021 35.2417C38.075 35.6454 34.118 40.0121 34.5847 44.9722C35.0517 49.9341 39.7643 53.5926 45.0857 53.1265C50.3594 52.6631 54.2428 48.3213 53.78 43.4048Z" fill="white"/>
<path d="M69.043 31.4638C69.2682 31.4534 69.4868 31.4504 69.7109 31.4806C70.4112 31.5752 71.1012 31.8903 71.4869 32.4632C71.8961 33.071 71.9521 33.8804 72.0081 34.5845C72.2858 38.0692 72.0795 41.6943 72.0786 45.1913C72.0778 48.0472 72.4175 51.9199 71.8483 54.6702C71.6693 55.5346 71.054 55.948 70.3172 56.4157C70.0366 56.4474 69.7429 56.4836 69.4599 56.4685C68.8276 56.4353 68.2287 56.1728 67.8198 55.7232C67.4155 55.2782 67.4272 54.385 67.3914 53.8268C67.1345 49.8184 67.3517 45.6817 67.3556 41.6611C67.3579 39.3764 67.0208 35.0028 67.5363 32.9639C67.7207 32.2345 68.4264 31.8522 69.043 31.4638Z" fill="white"/>
<path d="M62.5887 37.0625C63.3475 37.1928 64.0188 37.4585 64.461 38.0725C65.143 39.0198 65.1614 48.3006 64.8198 49.6252C64.6329 50.3493 63.9605 50.7023 63.323 51.0508C62.593 51.0101 61.6333 50.9498 61.1457 50.3599C60.4202 49.4834 60.4803 39.6197 60.8933 38.3827C61.1333 37.664 61.9263 37.3602 62.5887 37.0625Z" fill="white"/>
</svg>
