<svg aria-hidden="true" style="position: absolute; width: 0; height: 0; overflow: hidden;" version="1.1" xmlns="http://www.w3.org/2000/svg" xmlns:xlink="http://www.w3.org/1999/xlink">
<defs>
<symbol id="icon-con" viewBox="0 0 18 32">
<path fill="#fff" style="fill: var(--color1, #fff)" d="M0 32l18.286-16-18.286-16v32z"></path>
</symbol>
<symbol id="icon-icon" viewBox="0 0 32 32">
<path fill="#fff" style="fill: var(--color1, #fff)" d="M13.474 26.947c2.989-0.001 5.893-1.001 8.248-2.843l7.404 7.404 2.381-2.381-7.404-7.404c1.843-2.355 2.844-5.259 2.845-8.249 0-7.429-6.045-13.474-13.474-13.474s-13.474 6.045-13.474 13.474c0 7.429 6.045 13.474 13.474 13.474zM13.474 3.368c5.573 0 10.105 4.532 10.105 10.105s-4.532 10.105-10.105 10.105c-5.573 0-10.105-4.532-10.105-10.105s4.532-10.105 10.105-10.105z"></path>
</symbol>
<symbol id="icon-burger-menu" viewBox="0 0 43 32">
<path fill="#fff" style="fill: var(--color1, #fff)" d="M0 0h42.667v5.333h-42.667v-5.333zM10.667 13.333h32v5.333h-32v-5.333zM24 26.667h18.667v5.333h-18.667v-5.333z"></path>
</symbol>
<symbol id="icon-close" viewBox="0 0 32 32">
<path fill="#fff" style="fill: var(--color1, #fff)" d="M26.397 0l-11.315 11.312-11.312-11.312-3.771 3.771 11.312 11.312-11.312 11.312 3.771 3.771 11.312-11.312 11.315 11.312 3.771-3.771-11.312-11.312 11.312-11.312-3.771-3.771z"></path>
</symbol>
<symbol id="icon-Vector" viewBox="0 0 32 32">
<path fill="#fff" style="fill: var(--color1, #fff)" d="M32 16.098c0-8.891-7.163-16.098-16-16.098s-16 7.207-16 16.098c0 8.035 5.851 14.695 13.5 15.902v-11.249h-4.063v-4.653h4.063v-3.547c0-4.035 2.389-6.263 6.043-6.263 1.751 0 3.582 0.314 3.582 0.314v3.962h-2.017c-1.988 0-2.608 1.241-2.608 2.514v3.020h4.437l-0.709 4.653h-3.728v11.249c7.649-1.208 13.5-7.867 13.5-15.902z"></path>
</symbol>
<symbol id="icon-hero" viewBox="0 0 24 32">
<path fill="#fff" style="fill: var(--color1, #fff)" d="M0.858 31.82c0.259 0.135 0.549 0.196 0.841 0.178s0.572-0.115 0.812-0.281l20.8-14.4c0.212-0.147 0.386-0.344 0.506-0.573s0.183-0.484 0.183-0.742-0.063-0.513-0.183-0.742c-0.12-0.229-0.294-0.426-0.506-0.573l-20.8-14.4c-0.24-0.167-0.521-0.266-0.813-0.284s-0.583 0.043-0.842 0.179c-0.259 0.136-0.476 0.34-0.627 0.59s-0.23 0.537-0.229 0.83v28.8c-0 0.292 0.080 0.579 0.231 0.828s0.368 0.454 0.627 0.589zM3.2 4.657l16.389 11.346-16.389 11.346v-22.691z"></path>
</symbol>
<symbol id="icon-icon2" viewBox="0 0 32 32">
<path fill="#fff" style="fill: var(--color1, #fff)" d="M15.925 0c-8.781 0-15.925 7.178-15.925 16s7.178 16 16 16c8.822 0 16-7.178 16-16s-7.211-16-16.075-16zM16 28.8c-7.058 0-12.8-5.742-12.8-12.8s5.707-12.8 12.725-12.8c7.101 0 12.875 5.742 12.875 12.8s-5.742 12.8-12.8 12.8z"></path>
<path fill="#fff" style="fill: var(--color1, #fff)" d="M14.4 8h3.2v11.2h-3.2v-11.2zM14.4 20.8h3.2v3.2h-3.2v-3.2z"></path>
</symbol>
<symbol id="icon-down" viewBox="0 0 32 32">
<path fill="#fff" style="fill: var(--color1, #fff)" d="M30.661 15.33l-3.232-3.232-9.813 9.813v-21.911h-4.571v21.911l-9.813-9.813-3.232 3.232 15.33 15.33 15.33-15.33z"></path>
</symbol>
<symbol id="icon-Comment" viewBox="0 0 32 32">
<path fill="#fff" style="fill: var(--color1, #fff)" d="M8 8h16v3.2h-16v-3.2zM8 14.4h11.2v3.2h-11.2v-3.2z"></path>
<path fill="#fff" style="fill: var(--color1, #fff)" d="M28.8 0h-25.6c-1.765 0-3.2 1.435-3.2 3.2v28.8l8.533-6.4h20.267c1.765 0 3.2-1.435 3.2-3.2v-19.2c0-1.765-1.435-3.2-3.2-3.2zM28.8 22.4h-21.333l-4.267 3.2v-22.4h25.6v19.2z"></path>
</symbol>
<symbol id="icon-Pen" viewBox="0 0 32 32">
<path fill="#fff" style="fill: var(--color1, #fff)" d="M1.695 31.304c0.134 0.016 0.27 0.016 0.404 0l6.737-1.684c0.299-0.071 0.573-0.222 0.792-0.438l20.699-20.766c0.627-0.631 0.98-1.485 0.98-2.375s-0.352-1.744-0.98-2.375l-2.661-2.678c-0.313-0.313-0.684-0.562-1.093-0.731s-0.847-0.257-1.29-0.257c-0.443 0-0.881 0.087-1.29 0.257s-0.78 0.418-1.093 0.731l-20.699 20.699c-0.218 0.22-0.374 0.493-0.455 0.792l-1.684 6.737c-0.061 0.218-0.077 0.446-0.047 0.67s0.104 0.44 0.218 0.635c0.115 0.195 0.268 0.365 0.449 0.499s0.389 0.231 0.609 0.284c0.134 0.016 0.27 0.016 0.404 0zM25.274 3.363l2.678 2.678-2.678 2.678-2.661-2.678 2.661-2.678zM4.912 23.742l15.309-15.326 2.678 2.678-15.326 15.326-3.554 0.876 0.893-3.554z"></path>
</symbol>
<symbol id="icon-Instagram" viewBox="0 0 32 32">
<path fill="#fff" style="fill: var(--color1, #fff)" d="M15.998 6.161c3.206 0 3.585 0.014 4.846 0.071 1.172 0.052 1.804 0.248 2.226 0.412 0.558 0.216 0.961 0.478 1.378 0.895 0.422 0.422 0.679 0.82 0.9 1.378 0.164 0.422 0.361 1.059 0.412 2.226 0.056 1.266 0.071 1.645 0.071 4.847s-0.014 3.585-0.071 4.847c-0.052 1.172-0.248 1.804-0.412 2.227-0.216 0.558-0.478 0.961-0.895 1.377-0.422 0.422-0.82 0.679-1.378 0.9-0.422 0.164-1.060 0.361-2.226 0.412-1.266 0.056-1.645 0.071-4.847 0.071s-3.585-0.014-4.847-0.071c-1.172-0.052-1.804-0.248-2.226-0.412-0.558-0.216-0.961-0.478-1.378-0.895-0.422-0.422-0.679-0.82-0.9-1.378-0.164-0.422-0.361-1.060-0.412-2.226-0.056-1.266-0.071-1.645-0.071-4.847s0.014-3.585 0.071-4.847c0.052-1.172 0.248-1.804 0.412-2.226 0.216-0.558 0.478-0.961 0.895-1.378 0.422-0.422 0.82-0.679 1.378-0.9 0.422-0.164 1.059-0.361 2.226-0.412 1.261-0.056 1.641-0.071 4.847-0.071h0.001zM15.998 4.001c-3.258 0-3.665 0.014-4.945 0.071-1.275 0.056-2.151 0.262-2.91 0.558-0.792 0.309-1.462 0.717-2.127 1.387-0.67 0.666-1.078 1.336-1.387 2.123-0.295 0.764-0.502 1.636-0.558 2.91-0.056 1.285-0.071 1.692-0.071 4.949s0.014 3.665 0.071 4.945c0.056 1.275 0.262 2.151 0.558 2.91 0.31 0.792 0.717 1.462 1.387 2.127 0.665 0.665 1.336 1.078 2.123 1.383 0.764 0.295 1.636 0.502 2.91 0.558 1.279 0.056 1.687 0.071 4.945 0.071s3.666-0.014 4.945-0.071c1.275-0.056 2.151-0.262 2.91-0.558 0.787-0.305 1.458-0.717 2.123-1.383s1.078-1.336 1.383-2.123c0.295-0.764 0.502-1.635 0.558-2.91 0.056-1.279 0.071-1.687 0.071-4.945s-0.014-3.665-0.071-4.945c-0.056-1.275-0.262-2.151-0.558-2.91-0.295-0.797-0.703-1.467-1.373-2.133-0.665-0.665-1.336-1.078-2.123-1.383-0.764-0.295-1.635-0.502-2.91-0.558-1.284-0.061-1.692-0.075-4.949-0.075l-0.001 0.001z"></path>
<path fill="#fff" style="fill: var(--color1, #fff)" d="M15.998 9.836c-3.402 0-6.163 2.76-6.163 6.163s2.76 6.163 6.163 6.163c3.403 0 6.163-2.76 6.163-6.163s-2.76-6.163-6.163-6.163zM15.998 19.997c-2.208 0-3.998-1.79-3.998-3.998s1.79-3.998 3.998-3.998c2.208 0 3.998 1.79 3.998 3.998s-1.79 3.998-3.998 3.998z"></path>
<path fill="#fff" style="fill: var(--color1, #fff)" d="M23.843 9.592c0 0.795-0.644 1.439-1.439 1.439s-1.439-0.644-1.439-1.439 0.644-1.439 1.439-1.439c0.795 0 1.439 0.644 1.439 1.439z"></path>
</symbol>
<symbol id="icon-logo" viewBox="0 0 32 32">
<path fill="#fff" style="fill: var(--color1, #fff)" d="M17.5 3.14c0.384-0.041 0.83 0.039 1.201 0.145 0.838 0.238 1.518 0.747 1.922 1.474 0.42 0.745 0.501 1.616 0.224 2.417-0.351 0.988-1.105 1.484-2.047 1.94l0.010 2.881c0.673 0.191 1.328 0.408 1.939 0.738 1.404 0.758 2.364 2.037 2.767 3.492 0.426 1.526 0.183 3.148-0.673 4.508-0.786 1.233-2.038 2.143-3.538 2.492-1.959 0.456-3.622-0.038-5.306-0.971-0.744 0.742-1.48 1.492-2.206 2.25 0.325 0.713 0.433 1.462 0.217 2.22-0.21 0.741-0.768 1.376-1.48 1.751-0.799 0.421-1.709 0.498-2.585 0.264-0.869-0.232-1.6-0.733-2.025-1.487-0.418-0.741-0.453-1.61-0.182-2.401 0.308-0.899 0.937-1.452 1.82-1.863 0.95-0.346 1.735-0.233 2.663 0.078 0.772-0.757 1.5-1.553 2.28-2.303-0.857-1.567-1.135-2.902-0.689-4.629-0.971-0.422-1.907-0.914-2.879-1.337-0.519 0.503-1.153 0.849-1.898 0.966-0.889 0.139-1.827-0.087-2.557-0.573-0.724-0.489-1.2-1.233-1.316-2.059-0.12-0.801 0.106-1.683 0.656-2.315 0.567-0.652 1.448-1.045 2.337-1.131 0.873-0.079 1.745 0.169 2.422 0.69 0.865 0.675 1.115 1.515 1.22 2.516 0.921 0.526 1.975 0.931 2.935 1.401 1.248-1.375 2.161-1.809 3.98-2.332l0.001-2.858c-0.326-0.121-0.651-0.269-0.935-0.464-0.718-0.495-1.188-1.241-1.305-2.066-0.107-0.82 0.141-1.647 0.69-2.296 0.601-0.702 1.404-1.023 2.336-1.138zM17.361 14.097c-2.131 0.161-3.714 1.908-3.527 3.892s2.072 3.448 4.201 3.262c2.109-0.185 3.663-1.921 3.478-3.888s-2.039-3.426-4.151-3.266z"></path>
<path fill="#fff" style="fill: var(--color1, #fff)" d="M27.617 12.586c0.090-0.004 0.177-0.005 0.267 0.007 0.28 0.038 0.556 0.164 0.71 0.393 0.164 0.243 0.186 0.567 0.209 0.848 0.111 1.394 0.029 2.844 0.028 4.243-0 1.142 0.136 2.691-0.092 3.791-0.072 0.346-0.318 0.511-0.613 0.698-0.112 0.013-0.23 0.027-0.343 0.021-0.253-0.013-0.492-0.118-0.656-0.298-0.162-0.178-0.157-0.535-0.171-0.759-0.103-1.603-0.016-3.258-0.014-4.866 0.001-0.914-0.134-2.663 0.072-3.479 0.074-0.292 0.356-0.445 0.603-0.6z"></path>
<path fill="#fff" style="fill: var(--color1, #fff)" d="M25.035 14.825c0.304 0.052 0.572 0.158 0.749 0.404 0.273 0.379 0.28 4.091 0.144 4.621-0.075 0.29-0.344 0.431-0.599 0.57-0.292-0.016-0.676-0.040-0.871-0.276-0.29-0.351-0.266-4.296-0.101-4.791 0.096-0.287 0.413-0.409 0.678-0.528z"></path>
</symbol>
<symbol id="icon-logotext" viewBox="0 0 110 32">
<path d="M16.216 0.013c0.434-0.050 0.936 0.047 1.354 0.174 0.945 0.288 1.714 0.905 2.169 1.785 0.474 0.902 0.564 1.957 0.252 2.927-0.397 1.196-1.247 1.797-2.31 2.35l0.012 3.489c0.759 0.232 1.498 0.495 2.187 0.894 1.584 0.919 2.669 2.467 3.123 4.23 0.48 1.848 0.206 3.811-0.76 5.459-0.887 1.493-2.3 2.597-3.993 3.019-2.211 0.552-4.086-0.047-5.986-1.176-0.84 0.898-1.67 1.807-2.489 2.725 0.366 0.864 0.487 1.77 0.244 2.688-0.237 0.897-0.866 1.666-1.67 2.121-0.901 0.51-1.928 0.603-2.916 0.321-0.981-0.281-1.805-0.889-2.284-1.801-0.472-0.897-0.511-1.949-0.206-2.907 0.348-1.089 1.057-1.759 2.053-2.257 1.072-0.419 1.958-0.281 3.005 0.096 0.872-0.917 1.693-1.88 2.574-2.789-0.968-1.898-1.281-3.515-0.778-5.606-1.096-0.511-2.153-1.108-3.249-1.62-0.586 0.61-1.301 1.028-2.142 1.169-1.003 0.169-2.061-0.105-2.885-0.694-0.817-0.592-1.354-1.493-1.486-2.493-0.135-0.97 0.12-2.038 0.741-2.803 0.64-0.789 1.634-1.265 2.637-1.37 0.986-0.096 1.97 0.205 2.734 0.836 0.976 0.818 1.258 1.834 1.376 3.045 1.039 0.637 2.229 1.129 3.311 1.698 1.409-1.665 2.439-2.191 4.492-2.824l0.002-3.463c-0.368-0.147-0.735-0.326-1.055-0.561-0.81-0.599-1.341-1.502-1.473-2.501-0.121-0.994 0.159-1.996 0.779-2.782 0.678-0.851 1.585-1.238 2.636-1.377zM20.744 17.238c-0.209-2.382-2.302-4.148-4.685-3.955-2.404 0.196-4.189 2.311-3.979 4.714 0.211 2.404 2.337 4.176 4.739 3.951 2.381-0.224 4.134-2.328 3.925-4.71z"></path>
<path d="M101.919 11.829c0.708 0.001 1.416 0.011 2.124 0.029l-0.004 3.742c0.545-0.424 1.14-0.739 1.831-0.843 0.933-0.141 1.884 0.1 2.636 0.669 0.908 0.687 1.385 1.844 1.524 2.949 0.175 1.401-0.154 2.749-1.020 3.866-0.573 0.554-1.263 0.941-2.057 1.072-1.165 0.191-2.087-0.216-2.997-0.894l-0.004 0.818-2.032-0.003-0.001-11.404zM105.56 16.733c-0.632 0.21-1.070 0.51-1.378 1.118-0.343 0.675-0.365 1.508-0.099 2.211 0.204 0.538 0.585 1.004 1.117 1.244 0.386 0.175 0.75 0.18 1.165 0.155 0.66-0.249 1.103-0.569 1.401-1.229 0.312-0.689 0.307-1.52 0.011-2.214-0.227-0.533-0.631-0.963-1.176-1.174-0.341-0.131-0.683-0.149-1.042-0.111z"></path>
<path d="M41.085 11.807c1.246 3.84 2.84 7.575 4.055 11.425l-2.296 0.003c-0.269-0.822-0.529-1.752-0.94-2.512-0.268-0.115-0.586-0.076-0.873-0.073-1.107 0.011-2.215 0.007-3.323-0.012-0.348 0.849-0.628 1.722-0.903 2.596l-2.339-0.002c1.221-3.833 2.678-7.617 3.996-11.42 0.872 0.019 1.749-0.001 2.622-0.005zM39.776 14.646c-0.483 1.374-0.934 2.768-1.464 4.125l1.681-0.001 1.307-0.015c-0.184-0.518-1.25-3.88-1.524-4.109z"></path>
<path d="M89.498 11.832l2.196 0.013c-0.030 2.647-0.007 5.298-0.007 7.945-0.001 1.093 0.11 2.287-0.012 3.365l-0.121 0.083h-2.058l-0.004-4.889c-1.645-0.046-3.303-0.005-4.949-0.003l0.001 4.894-2.209-0.004 0.009-11.401 2.201 0.005 0.001 4.662h4.957l-0.003-4.67z"></path>
<path d="M93.015 14.992c0.729 0.021 1.459 0.013 2.188 0.017-0.009 1.165-0.193 4.384 0.089 5.347 0.111 0.38 0.333 0.728 0.693 0.913 0.541 0.278 1.090 0.117 1.628-0.072 0.238-0.266 0.443-0.515 0.561-0.859 0.386-1.123 0.18-4.006 0.174-5.343 0.694 0.019 1.391 0.004 2.085 0-0.016 0.8-0.003 1.603-0.004 2.404l0.011 5.834c-0.683 0.010-1.365 0.005-2.047-0.015l-0.063-0.074c0.010-0.173 0.012-0.314-0.018-0.487-0.639 0.277-1.209 0.697-1.936 0.712-0.843 0.017-1.758-0.245-2.364-0.852-0.459-0.459-0.739-1.076-0.883-1.703-0.31-1.348-0.127-4.332-0.113-5.824z"></path>
<path d="M63.498 14.762c1.089-0.085 2.224-0.008 3.104 0.725 0.617 0.514 0.816 1.13 0.883 1.897l-1.968-0.002c-0.113-0.21-0.227-0.454-0.404-0.619-0.284-0.262-0.694-0.398-1.078-0.377-0.298 0.016-0.679 0.135-0.865 0.387-0.113 0.154-0.175 0.311-0.132 0.503 0.224 1.009 2.79 0.884 3.607 1.419 0.52 0.341 0.919 0.951 1.034 1.56 0.115 0.623-0.033 1.266-0.408 1.775-0.627 0.865-1.593 1.175-2.599 1.329-0.931 0.056-2.011-0.194-2.756-0.761-0.699-0.532-0.95-1.185-1.045-2.025 0.663 0.002 1.326-0.005 1.989-0.018 0.039 0.125 0.082 0.246 0.145 0.361 0.289 0.533 0.865 0.651 1.4 0.808 0.353-0.081 0.831-0.172 1.082-0.457 0.151-0.172 0.204-0.471 0.14-0.691-0.245-0.843-2.703-0.943-3.556-1.468-0.505-0.311-0.876-0.764-1.011-1.349-0.121-0.53-0.075-1.125 0.223-1.59 0.538-0.84 1.28-1.185 2.216-1.408z"></path>
<path d="M76.743 14.76c0.62-0.050 1.227-0.047 1.832 0.117 0.697 0.189 1.438 0.578 1.79 1.239 0.17 0.317 0.3 0.886 0.186 1.237-0.565 0.122-1.255 0.040-1.835 0.033-0.085-0.287-0.158-0.509-0.391-0.707-0.295-0.247-0.679-0.364-1.062-0.322-0.3 0.031-0.685 0.178-0.852 0.447-0.1 0.16-0.141 0.325-0.078 0.509 0.363 1.068 2.535 0.814 3.38 1.297 0.538 0.308 0.988 0.848 1.141 1.454 0.164 0.65 0.056 1.372-0.319 1.931-0.56 0.835-1.449 1.149-2.388 1.331-0.922 0.114-1.989-0.082-2.759-0.613-0.791-0.545-1.028-1.229-1.206-2.123l1.973-0.015c0.12 0.302 0.229 0.537 0.485 0.746 0.341 0.279 0.745 0.406 1.184 0.347 0.341-0.045 0.676-0.202 0.88-0.487 0.133-0.187 0.199-0.414 0.136-0.642-0.247-0.878-2.426-0.823-3.29-1.288-0.584-0.315-1.047-0.838-1.231-1.481-0.157-0.544-0.091-1.11 0.196-1.599 0.477-0.81 1.353-1.206 2.231-1.409z"></path>
<path d="M52.453 12.728c0.655 0.023 1.315 0.009 1.97 0.011-0.007 0.74 0.004 1.48 0.032 2.219l1.944 0.001-0.004 1.694-1.851-0.001c0.001 1.066-0.243 3.817 0.246 4.641 0.382 0.301 1.145 0.189 1.609 0.183l-0.007 1.404c0.004 0.145 0.004 0.218-0.070 0.344-0.259 0.124-0.524 0.152-0.81 0.154-0.752 0.007-1.791-0.129-2.331-0.693-1.086-1.131-0.739-4.457-0.734-6.035l-1.254 0.002 0.004-1.698 1.249 0.008 0.007-2.236z"></path>
<path d="M69.353 12.719l1.934 0.011c-0.015 0.741 0.016 1.485 0.030 2.226l1.975-0.004-0.003 1.702-1.859-0.001c0.023 1.015-0.226 3.85 0.234 4.617 0.494 0.295 1.113 0.216 1.669 0.215-0.007 0.489 0.003 0.979 0.005 1.469l-0.023 0.186c-0.191 0.202-0.486 0.194-0.747 0.2-0.794 0.019-1.891-0.107-2.467-0.71-1.075-1.126-0.74-4.405-0.731-5.978l-1.323 0.001c-0.017-0.564-0.010-1.129-0.015-1.692l1.318 0.007 0.004-2.249z"></path>
<path d="M27.633 11.453c0.102-0.005 0.2-0.007 0.301 0.008 0.316 0.046 0.628 0.198 0.802 0.476 0.185 0.294 0.21 0.687 0.235 1.028 0.125 1.688 0.032 3.444 0.032 5.138-0 1.384 0.153 3.26-0.104 4.592-0.081 0.419-0.358 0.619-0.691 0.846-0.127 0.015-0.259 0.033-0.387 0.026-0.285-0.016-0.556-0.143-0.74-0.361-0.183-0.216-0.177-0.648-0.193-0.919-0.116-1.942-0.018-3.946-0.016-5.893 0.001-1.107-0.151-3.225 0.082-4.213 0.083-0.353 0.402-0.539 0.68-0.727z"></path>
<path d="M50.055 14.929l0.278-0.003c0.329 0.368 0.166 1.535 0.155 2.018-0.696-0.007-1.354-0.035-1.899 0.471-1.023 0.949-0.678 4.425-0.688 5.82-0.548-0.005-1.617 0.195-2.035-0.154l-0.022-0.346c0.010-2.586-0.055-5.169-0.038-7.754 0.664 0.021 1.33 0.007 1.994 0.003l-0.023 1.142c0.123-0.177 0.246-0.366 0.389-0.527 0.503-0.568 1.186-0.619 1.891-0.669z"></path>
<path d="M57.608 14.963l2.086 0.001 0.005 8.275-2.11-0.003 0.019-8.273z"></path>
<path d="M24.719 14.164c0.342 0.063 0.645 0.192 0.845 0.489 0.308 0.459 0.316 4.955 0.162 5.596-0.084 0.351-0.388 0.522-0.676 0.691-0.329-0.020-0.763-0.049-0.983-0.335-0.328-0.425-0.3-5.203-0.114-5.802 0.108-0.348 0.466-0.495 0.765-0.639z"></path>
<path d="M58.514 11.554c0.62-0.073 1.185 0.36 1.276 0.978s-0.325 1.195-0.939 1.304c-0.414 0.073-0.835-0.084-1.099-0.411s-0.33-0.771-0.171-1.161c0.159-0.389 0.516-0.661 0.933-0.71z"></path>
</symbol>
<symbol id="icon-dots-horizontal" viewBox="0 0 32 32">
<path d="M13.333 13.333h5.333v5.333h-5.333v-5.333zM21.333 13.333h5.333v5.333h-5.333v-5.333zM5.333 13.333h5.333v5.333h-5.333v-5.333z"></path>
</symbol>
<symbol id="icon-modal-up" viewBox="0 0 32 32">
<path d="M6.667 14.667h18.667v2.667h-18.667v-2.667z"></path>
</symbol>
<symbol id="icon-YouTube" viewBox="0 0 45 32">
<path fill="#fff" style="fill: var(--color1, #fff)" d="M41.828 4.7c-0.243-0.902-0.718-1.724-1.377-2.385s-1.481-1.138-2.382-1.383c-3.341-0.917-16.706-0.932-16.706-0.932s-13.363-0.015-16.706 0.862c-0.9 0.256-1.72 0.74-2.38 1.404s-1.138 1.487-1.388 2.389c-0.881 3.341-0.89 10.27-0.89 10.27s-0.009 6.963 0.866 10.27c0.491 1.828 1.931 3.273 3.761 3.765 3.375 0.917 16.704 0.932 16.704 0.932s13.365 0.015 16.706-0.86c0.901-0.245 1.723-0.72 2.384-1.38s1.139-1.481 1.385-2.381c0.883-3.339 0.89-10.266 0.89-10.266s0.043-6.965-0.868-10.306zM17.088 21.344l0.011-12.8 11.108 6.411-11.119 6.389z"></path>
</symbol>
<symbol id="icon-microphone" viewBox="0 0 32 32">
<path d="M18.251 12.906c0.617-2.099 0.356-4.4-0.782-6.327 0.025 0.035-10.879 11.027-10.957 10.958 1.895 1.119 4.196 1.434 6.267 0.856-0.015-0.053 5.428-5.495 5.472-5.487zM16.306 4.826c-1.469-1.448-3.571-2.43-5.794-2.43-4.493 0-8.136 3.652-8.136 8.156 0 2.198 1 4.326 2.41 5.793 0.003 0 11.451-11.425 11.52-11.519zM27.812 26.466c0 0 0.266-2.298-0.397-2.961-0.044-0.044-7.646-9.325-7.646-9.325l-5.657 5.657 9.281 7.689c0.619 0.707 3.005 0.354 3.005 0.354l1.9 1.724 1.326-1.326-1.812-1.812z"></path>
</symbol>
</defs>
</svg>
